<svg id="Livello_1" data-name="Livello 1" xmlns="http://www.w3.org/2000/svg" viewBox="0 0 79.98 24.13"><defs><style>.cls-1,.cls-2{fill:#1d1d1b;}.cls-2{opacity:0.15;}</style></defs><g id="text"><path class="cls-1" d="M102,70.31h2.27l2.41,5.87h.1l2.4-5.87h2.28V79h-1.79V73.36h-.08L107.3,79h-1.22l-2.26-5.66h-.07V79H102Z" transform="translate(-78.75 -66)"/><path class="cls-1" d="M115.86,79.17a3.37,3.37,0,0,1-1.72-.42A2.9,2.9,0,0,1,113,77.56,4.21,4.21,0,0,1,113,74a2.9,2.9,0,0,1,1.11-1.19,3.37,3.37,0,0,1,1.72-.42,3.33,3.33,0,0,1,1.71.42A2.92,2.92,0,0,1,118.69,74a4.21,4.21,0,0,1,0,3.54,2.92,2.92,0,0,1-1.12,1.19A3.33,3.33,0,0,1,115.86,79.17Zm0-1.41a1.11,1.11,0,0,0,.75-.25,1.72,1.72,0,0,0,.46-.71,3.54,3.54,0,0,0,0-2,1.62,1.62,0,0,0-.46-.7,1.07,1.07,0,0,0-.75-.26,1.12,1.12,0,0,0-.77.26,1.46,1.46,0,0,0-.46.7,3.33,3.33,0,0,0,0,2,1.54,1.54,0,0,0,.46.71A1.17,1.17,0,0,0,115.87,77.76Z" transform="translate(-78.75 -66)"/><path class="cls-1" d="M126.15,72.5,123.86,79h-2l-2.28-6.54h1.91l1.36,4.68h.07l1.36-4.68Z" transform="translate(-78.75 -66)"/><path class="cls-1" d="M128,71.65a1,1,0,0,1-.69-.27.81.81,0,0,1-.29-.64.86.86,0,0,1,.29-.65,1,1,0,0,1,.69-.27,1,1,0,0,1,.69.26.87.87,0,0,1,0,1.3A1,1,0,0,1,128,71.65ZM127.08,79V72.5h1.81V79Z" transform="translate(-78.75 -66)"/><path class="cls-1" d="M143.25,79.17a3.33,3.33,0,0,1-1.71-.42,3,3,0,0,1-1.12-1.19,4.21,4.21,0,0,1,0-3.54,3,3,0,0,1,1.12-1.19,3.71,3.71,0,0,1,3.43,0A2.9,2.9,0,0,1,146.08,74a4.12,4.12,0,0,1,0,3.54A2.9,2.9,0,0,1,145,78.75,3.35,3.35,0,0,1,143.25,79.17Zm0-1.41a1.16,1.16,0,0,0,.76-.25,1.61,1.61,0,0,0,.45-.71,3.33,3.33,0,0,0,0-2,1.52,1.52,0,0,0-.45-.7,1.12,1.12,0,0,0-.76-.26,1.1,1.1,0,0,0-.76.26,1.55,1.55,0,0,0-.47.7,3.54,3.54,0,0,0,0,2,1.64,1.64,0,0,0,.47.71A1.14,1.14,0,0,0,143.26,77.76Z" transform="translate(-78.75 -66)"/><path class="cls-1" d="M151.86,76.25V72.5h1.81V79h-1.74V77.85h-.07a2,2,0,0,1-.73.93,2.4,2.4,0,0,1-2.41,0,2.07,2.07,0,0,1-.78-.85,3,3,0,0,1-.28-1.32V72.5h1.81v3.84a1.35,1.35,0,0,0,.32.92,1,1,0,0,0,.82.33,1.28,1.28,0,0,0,.61-.15,1.11,1.11,0,0,0,.46-.45A1.4,1.4,0,0,0,151.86,76.25Z" transform="translate(-78.75 -66)"/><path class="cls-1" d="M158.6,72.5v1.36h-3.94V72.5Zm-3-1.57h1.81V77a.81.81,0,0,0,.08.39.39.39,0,0,0,.21.19.83.83,0,0,0,.32.06l.26,0,.2,0,.28,1.35-.38.1a3.3,3.3,0,0,1-.6.07,2.76,2.76,0,0,1-1.15-.17,1.65,1.65,0,0,1-.77-.63,1.84,1.84,0,0,1-.26-1.06Z" transform="translate(-78.75 -66)"/><path class="cls-1" d="M105.4,83.45v1.37h-3.94V83.45Zm-3-1.56h1.81V88a.81.81,0,0,0,.08.39.39.39,0,0,0,.21.19.84.84,0,0,0,.33.06,1.07,1.07,0,0,0,.25,0l.2,0,.28,1.35-.38.1a3.19,3.19,0,0,1-.6.07,2.6,2.6,0,0,1-1.15-.18,1.56,1.56,0,0,1-.76-.62,1.76,1.76,0,0,1-.27-1.06Z" transform="translate(-78.75 -66)"/><path class="cls-1" d="M108.54,86.22V90h-1.82V81.27h1.77v3.34h.07a1.87,1.87,0,0,1,.72-.91,2.18,2.18,0,0,1,1.24-.33,2.31,2.31,0,0,1,1.19.3,2,2,0,0,1,.79.84,2.86,2.86,0,0,1,.28,1.32V90H111V86.16a1.34,1.34,0,0,0-.31-1,1.12,1.12,0,0,0-.86-.33,1.29,1.29,0,0,0-.66.16,1.06,1.06,0,0,0-.44.45A1.49,1.49,0,0,0,108.54,86.22Z" transform="translate(-78.75 -66)"/><path class="cls-1" d="M117.2,90.13a3.5,3.5,0,0,1-1.74-.41,2.81,2.81,0,0,1-1.12-1.17,4.28,4.28,0,0,1,0-3.57,2.87,2.87,0,0,1,1.11-1.18,3.12,3.12,0,0,1,1.67-.43,3.42,3.42,0,0,1,1.21.21,2.6,2.6,0,0,1,1,.62,2.71,2.71,0,0,1,.65,1,4.1,4.1,0,0,1,.24,1.46v.5h-5.53V86.07h3.82a1.45,1.45,0,0,0-.17-.7,1.18,1.18,0,0,0-.47-.47,1.33,1.33,0,0,0-.7-.18,1.47,1.47,0,0,0-.73.19,1.33,1.33,0,0,0-.49.51,1.42,1.42,0,0,0-.19.71V87.2a1.86,1.86,0,0,0,.18.84,1.29,1.29,0,0,0,.52.54,1.52,1.52,0,0,0,.79.19,1.92,1.92,0,0,0,.55-.08,1.1,1.1,0,0,0,.43-.26,1,1,0,0,0,.27-.42l1.68.11a2.25,2.25,0,0,1-.52,1.06,2.61,2.61,0,0,1-1,.7A3.91,3.91,0,0,1,117.2,90.13Z" transform="translate(-78.75 -66)"/><path class="cls-1" d="M124.2,90V81.27H126v3.28h0a2.54,2.54,0,0,1,.35-.53,1.8,1.8,0,0,1,.6-.47,2,2,0,0,1,.91-.18,2.44,2.44,0,0,1,1.32.37,2.56,2.56,0,0,1,1,1.12,4.35,4.35,0,0,1,.36,1.88,4.23,4.23,0,0,1-.35,1.84,2.63,2.63,0,0,1-.95,1.14,2.42,2.42,0,0,1-1.35.39,2.06,2.06,0,0,1-.9-.18,1.8,1.8,0,0,1-.6-.44,2.12,2.12,0,0,1-.36-.54H126v1ZM126,86.73a2.88,2.88,0,0,0,.16,1,1.45,1.45,0,0,0,.47.67,1.28,1.28,0,0,0,1.49,0,1.52,1.52,0,0,0,.47-.69,3.21,3.21,0,0,0,0-2,1.44,1.44,0,0,0-.46-.67,1.22,1.22,0,0,0-.76-.25,1.15,1.15,0,0,0-.74.24,1.42,1.42,0,0,0-.47.66A2.88,2.88,0,0,0,126,86.73Z" transform="translate(-78.75 -66)"/><path class="cls-1" d="M134.75,90.13A3.28,3.28,0,0,1,133,89.7a2.81,2.81,0,0,1-1.11-1.18,4.21,4.21,0,0,1,0-3.54A2.9,2.9,0,0,1,133,83.79a3.37,3.37,0,0,1,1.72-.42,3.33,3.33,0,0,1,1.71.42A2.92,2.92,0,0,1,137.58,85a4.21,4.21,0,0,1,0,3.54,2.83,2.83,0,0,1-1.12,1.18A3.24,3.24,0,0,1,134.75,90.13Zm0-1.41a1.07,1.07,0,0,0,.75-.26,1.62,1.62,0,0,0,.46-.7,3.54,3.54,0,0,0,0-2,1.72,1.72,0,0,0-.46-.71,1.12,1.12,0,0,0-.75-.26A1.18,1.18,0,0,0,134,85a1.62,1.62,0,0,0-.46.71,3.33,3.33,0,0,0,0,2,1.53,1.53,0,0,0,.46.7A1.12,1.12,0,0,0,134.76,88.72Z" transform="translate(-78.75 -66)"/><path class="cls-1" d="M140.43,83.45l1.2,2.29,1.23-2.29h1.86l-1.89,3.28L144.77,90h-1.85l-1.29-2.26L140.36,90h-1.88l2-3.27-1.88-3.28Z" transform="translate(-78.75 -66)"/></g><g id="box"><polygon class="cls-1" points="19.21 24.13 1.43 24.13 0 22.7 0 10.47 20.64 10.47 20.64 22.7 19.21 24.13"/><polygon class="cls-1" points="9.31 9.12 0 9.12 3.65 3.49 9.31 3.49 9.31 9.12"/><polygon class="cls-1" points="11.77 4.91 20.64 9.12 16.99 3.49 10.17 0 11.77 4.91"/><polygon class="cls-2" points="20.64 9.16 10.32 9.16 10.32 3.49 15.17 3.49 20.64 9.16"/></g><g id="camera"><rect class="cls-1" x="51.87" y="10.12" width="4.61" height="2.91"/><rect class="cls-1" x="50.92" y="10.12" width="0.95" height="0.95"/><path class="cls-1" d="M131.42,72.34A1.65,1.65,0,1,0,133.06,74,1.65,1.65,0,0,0,131.42,72.34Zm0,2.54a.9.9,0,1,1,.89-.89A.89.89,0,0,1,131.42,74.88Z" transform="translate(-78.75 -66)"/><path class="cls-1" d="M134.4,72.34A1.65,1.65,0,1,0,136.05,74,1.65,1.65,0,0,0,134.4,72.34Zm0,2.54a.9.9,0,1,1,.89-.89A.89.89,0,0,1,134.4,74.88Z" transform="translate(-78.75 -66)"/><polygon class="cls-1" points="55.65 9.63 52.67 9.63 53.88 8.69 54.41 8.69 55.65 9.63"/><polygon class="cls-1" points="58.52 12.66 56.83 12.18 56.83 10.48 58.52 9.89 58.52 12.66"/></g></svg>